<?xml version="1.0" encoding="UTF-8"?>
<svg version="1.1" xmlns="http://www.w3.org/2000/svg" width="126" height="126">
<path d="M0 0 C2.375 -0.125 2.375 -0.125 5 0 C7.23000641 2.23000641 7.33604772 3.00826488 7.875 6 C8.56224926 9.25333002 8.56224926 9.25333002 10.9375 11.5 C13.13221824 12.11780001 13.13221824 12.11780001 16 12 C16.66 14.31 17.32 16.62 18 19 C18.66 19 19.32 19 20 19 C20.495 21.475 20.495 21.475 21 24 C21.66 23.34 22.32 22.68 23 22 C23.495 23.98 23.495 23.98 24 26 C23.979375 24.88625 23.95875 23.7725 23.9375 22.625 C24 19 24 19 25 17 C26.65 17 28.3 17 30 17 C32.30797712 21.32611525 34.16526447 25.13070942 35 30 C35.99 31.485 35.99 31.485 37 33 C39.41330977 40.07393445 39.0424528 45.22808893 36 52 C35.34 52 34.68 52 34 52 C34 52.99 34 53.98 34 55 C32.68 55 31.36 55 30 55 C30 55.66 30 56.32 30 57 C31.216875 56.814375 32.43375 56.62875 33.6875 56.4375 C37.02977939 56.01006818 39.71968417 56.07741117 43 57 C43 57.66 43 58.32 43 59 C44.32 59 45.64 59 47 59 C47 59.66 47 60.32 47 61 C48.65 61.33 50.3 61.66 52 62 C52 62.99 52 63.98 52 65 C54.64 65 57.28 65 60 65 C60 65.66 60 66.32 60 67 C60.66 67.33 61.32 67.66 62 68 C62 68.66 62 69.32 62 70 C62.66 70.66 63.32 71.32 64 72 C66 74 66 74 66 76 C68.31 76 70.62 76 73 76 C73.33 76.99 73.66 77.98 74 79 C75.32467746 79.6837045 76.65863633 80.34964186 78 81 C78.99 82.485 78.99 82.485 80 84 C79.505 85.98 79.505 85.98 79 88 C74.38 88 69.76 88 65 88 C64.34 86.68 63.68 85.36 63 84 C62.34 83.67 61.68 83.34 61 83 C61 82.34 61 81.68 61 81 C60.319375 80.79375 59.63875 80.5875 58.9375 80.375 C55.58181505 78.80425385 53.3922373 76.79666326 50.74609375 74.2421875 C48.81391726 72.6135432 48.81391726 72.6135432 45 73 C45.40992187 73.56847656 45.81984375 74.13695313 46.2421875 74.72265625 C49.53029214 79.43455739 51.80218296 83.37025993 53 89 C53.66 89 54.32 89 55 89 C55 89.66 55 90.32 55 91 C55.66 91.33 56.32 91.66 57 92 C56.62875 93.0828125 56.62875 93.0828125 56.25 94.1875 C55.66877229 97.15794088 55.66877229 97.15794088 57.9375 99.5625 C58.618125 100.366875 59.29875 101.17125 60 102 C60 103.32 60 104.64 60 106 C60.61875 106.0825 61.2375 106.165 61.875 106.25 C64 107 64 107 65.3125 108.6875 C66.22979703 111.77295365 65.82216447 113.91688325 65 117 C62.29120665 118.35439668 59.99066732 118.06501451 57 118 C55.47551369 115.0173094 54.06059933 112.181798 53 109 C52.505 110.485 52.505 110.485 52 112 C51.67 111.01 51.34 110.02 51 109 C50.34 109.66 49.68 110.32 49 111 C48.67 109.02 48.34 107.04 48 105 C47.34 105 46.68 105 46 105 C45.67 103.35 45.34 101.7 45 100 C44.34 100 43.68 100 43 100 C42.01 96.7 41.02 93.4 40 90 C38.68 90 37.36 90 36 90 C34.515 89.01 34.515 89.01 33 88 C32.62875 88.9590625 32.62875 88.9590625 32.25 89.9375 C31 92 31 92 28.875 92.75 C28.25625 92.8325 27.6375 92.915 27 93 C29.02633069 97.32371893 29.02633069 97.32371893 32 101 C31.68538834 102.67030189 31.34894587 104.33653203 31 106 C31.26579521 108.74232548 31.26579521 108.74232548 31.875 111.5 C32.05804688 112.4178125 32.24109375 113.335625 32.4296875 114.28125 C32.80981989 116.09338799 33.22402654 117.89871113 33.671875 119.6953125 C34 122 34 122 32.375 124.375 C30 126 30 126 27.375 126 C25 125 25 125 23.6875 122.9375 C23.3471875 121.9784375 23.3471875 121.9784375 23 121 C22.34 121 21.68 121 21 121 C20.93941406 120.38511719 20.87882812 119.77023438 20.81640625 119.13671875 C20.73261719 118.32847656 20.64882812 117.52023438 20.5625 116.6875 C20.48128906 115.88699219 20.40007812 115.08648437 20.31640625 114.26171875 C20.04734307 111.83912821 20.04734307 111.83912821 19 109 C18.98083302 107.56247682 19.00543624 106.12401801 19.0625 104.6875 C19.08827246 100.73142766 18.83905549 97.59053692 17 94 C14.49004504 92.56076801 14.49004504 92.56076801 12 92 C11.67 92.66 11.34 93.32 11 94 C10.34 94 9.68 94 9 94 C8.81824219 95.12148437 8.81824219 95.12148437 8.6328125 96.265625 C8.38144531 97.74289063 8.38144531 97.74289063 8.125 99.25 C7.96257813 100.22453125 7.80015625 101.1990625 7.6328125 102.203125 C7.04135658 104.81721414 6.46679208 106.76391137 5 109 C4.01 109.33 3.02 109.66 2 110 C1.54625 110.515625 1.0925 111.03125 0.625 111.5625 C-1 113 -1 113 -3.5625 113.3125 C-6 113 -6 113 -8 111 C-8.87301012 105.97826039 -9.26587434 100.96352579 -6.43359375 96.5703125 C-4.5 94.5 -4.5 94.5 -2.53125 92.71875 C-0.55652931 90.88587983 -0.55652931 90.88587983 -1 87 C-0.67 85.783125 -0.34 84.56625 0 83.3125 C1.1713219 78.89304432 1.42849427 74.55399726 1 70 C0.67 69.67 0.34 69.34 0 69 C-0.04080783 67.00041636 -0.04254356 64.99954746 0 63 C-2.475 63.495 -2.475 63.495 -5 64 C-5 63.34 -5 62.68 -5 62 C-6.32 61.67 -7.64 61.34 -9 61 C-8.01 60.505 -8.01 60.505 -7 60 C-11.39909969 57.53221237 -15.02852975 56.64444985 -20 56 C-22.3125 55.1875 -22.3125 55.1875 -24 54 C-24.25265625 53.39929687 -24.5053125 52.79859375 -24.765625 52.1796875 C-26.45101578 49.20358606 -28.63421819 47.86964244 -31.4375 45.9375 C-38.11015528 41.30840093 -38.11015528 41.30840093 -40 39 C-40.1875 36.3125 -40.1875 36.3125 -40 34 C-38.2578125 33.2890625 -38.2578125 33.2890625 -36 33 C-33.9296875 34.3984375 -33.9296875 34.3984375 -31.875 36.375 C-28.18936312 39.86592398 -25.97883339 41.02852031 -21 42 C-19.515 42.495 -19.515 42.495 -18 43 C-18 42.34 -18 41.68 -18 41 C-18.639375 40.896875 -19.27875 40.79375 -19.9375 40.6875 C-20.618125 40.460625 -21.29875 40.23375 -22 40 C-22.33 39.01 -22.66 38.02 -23 37 C-24.485 36.505 -24.485 36.505 -26 36 C-26 35.34 -26 34.68 -26 34 C-26.99 33.67 -27.98 33.34 -29 33 C-33 27.62857143 -33 27.62857143 -33 25 C-33.64453125 24.76539062 -34.2890625 24.53078125 -34.953125 24.2890625 C-37 23 -37 23 -37.609375 20.8359375 C-37.65578125 20.02382813 -37.7021875 19.21171875 -37.75 18.375 C-37.80671875 17.55773437 -37.8634375 16.74046875 -37.921875 15.8984375 C-37.94765625 15.27195312 -37.9734375 14.64546875 -38 14 C-35.375 14 -35.375 14 -32 15 C-30.27684771 16.95966338 -28.88585184 18.98283325 -27.4921875 21.1875 C-25.69788023 23.3669727 -24.70348143 23.46559088 -22 24 C-18.72239042 26.49098328 -16.28866345 28.56700483 -14 32 C-13.01 31.67 -12.02 31.34 -11 31 C-9.77030122 27.48809191 -9.77030122 27.48809191 -9 24 C-8.01 24 -7.02 24 -6 24 C-6 23.01 -6 22.02 -6 21 C-3.69 21.33 -1.38 21.66 1 22 C1.33 21.34 1.66 20.68 2 20 C3.32 20.99 4.64 21.98 6 23 C5.67558396 21.33157466 5.34060811 19.66519519 5 18 C4.87625 17.319375 4.7525 16.63875 4.625 15.9375 C3.85266313 13.5432557 2.58685337 11.93182149 1 10 C1.33 9.67 1.66 9.34 2 9 C1.484375 8.62875 0.96875 8.2575 0.4375 7.875 C-1 6 -1 6 -0.6875 2.8125 C-0.460625 1.884375 -0.23375 0.95625 0 0 Z M25 28 C26 30 26 30 26 30 Z M15 30 C15.66 31.32 16.32 32.64 17 34 C17 33.01 17 32.02 17 31 C16.34 30.67 15.68 30.34 15 30 Z M26 33 C26.0825 33.721875 26.165 34.44375 26.25 35.1875 C25.92407295 38.8541793 24.37466594 40.26553619 22 43 C21.67 43.99 21.34 44.98 21 46 C22.485 46.99 22.485 46.99 24 48 C24.268125 47.236875 24.53625 46.47375 24.8125 45.6875 C26 43 26 43 27.625 41.5 C29.24255706 40.01738838 29.24255706 40.01738838 29.375 37.4375 C29.25125 36.633125 29.1275 35.82875 29 35 C28.01 34.34 27.02 33.68 26 33 Z M-17 44 C-16.34 45.32 -15.68 46.64 -15 48 C-14.67 47.34 -14.34 46.68 -14 46 C-13.34 45.67 -12.68 45.34 -12 45 C-13.65 44.67 -15.3 44.34 -17 44 Z M39 66 C40 68 40 68 40 68 Z M43 70 C43 70.66 43 71.32 43 72 C43.66 71.67 44.32 71.34 45 71 C44.34 70.67 43.68 70.34 43 70 Z M23 79 C23.66 80.32 24.32 81.64 25 83 C25 81.68 25 80.36 25 79 C24.34 79 23.68 79 23 79 Z M40 86 C41 88 41 88 41 88 Z M11 87 C12 89 12 89 12 89 Z M47 101 C48 104 48 104 48 104 Z " fill="#20120A" transform="translate(44,0)"/>
<path d="M0 0 C2.375 -0.125 2.375 -0.125 5 0 C7.23000641 2.23000641 7.33604772 3.00826488 7.875 6 C8.56224926 9.25333002 8.56224926 9.25333002 10.9375 11.5 C13.13221824 12.11780001 13.13221824 12.11780001 16 12 C16.66 14.31 17.32 16.62 18 19 C18.66 19 19.32 19 20 19 C20.495 21.475 20.495 21.475 21 24 C21.66 23.34 22.32 22.68 23 22 C23.495 23.98 23.495 23.98 24 26 C23.979375 24.88625 23.95875 23.7725 23.9375 22.625 C24 19 24 19 25 17 C26.65 17 28.3 17 30 17 C32.30797712 21.32611525 34.16526447 25.13070942 35 30 C35.99 31.485 35.99 31.485 37 33 C39.41330977 40.07393445 39.0424528 45.22808893 36 52 C35.34 52 34.68 52 34 52 C34 52.99 34 53.98 34 55 C32.68 55 31.36 55 30 55 C30.33 55.99 30.66 56.98 31 58 C31.825 58.33 32.65 58.66 33.5 59 C34.325 59.33 35.15 59.66 36 60 C36.33 60.99 36.66 61.98 37 63 C36.01 63.495 36.01 63.495 35 64 C34.53476937 65.89533342 34.53476937 65.89533342 34.375 68.0625 C34.189375 70.0115625 34.189375 70.0115625 34 72 C32.515 72.495 32.515 72.495 31 73 C31 74.65 31 76.3 31 78 C30.34 76.68 29.68 75.36 29 74 C28.01 74 27.02 74 26 74 C26 75.32 26 76.64 26 78 C26.99 78 27.98 78 29 78 C29 78.99 29 79.98 29 81 C28.34 81 27.68 81 27 81 C27 80.34 27 79.68 27 79 C26.34 79 25.68 79 25 79 C24.67 77.68 24.34 76.36 24 75 C23.34 75 22.68 75 22 75 C22 74.34 22 73.68 22 73 C21.01 73.495 21.01 73.495 20 74 C20 74.66 20 75.32 20 76 C18.39796533 76.36368892 16.79325797 76.71561952 15.1875 77.0625 C14.29417969 77.25972656 13.40085938 77.45695312 12.48046875 77.66015625 C10 78 10 78 7 77 C7.495 75.515 7.495 75.515 8 74 C9.98 74 11.96 74 14 74 C13.67 73.01 13.34 72.02 13 71 C12.01 70.505 12.01 70.505 11 70 C10.7525 69.195625 10.505 68.39125 10.25 67.5625 C9.19044598 64.67628816 9.19044598 64.67628816 5.875 63.6875 C4.451875 63.3471875 4.451875 63.3471875 3 63 C3.33 62.236875 3.66 61.47375 4 60.6875 C5.17436686 58.00930865 5.17436686 58.00930865 5 55 C3.83344721 52.99185922 3.83344721 52.99185922 2.25 51 C1.73953125 50.319375 1.2290625 49.63875 0.703125 48.9375 C-1.0384143 46.95629933 -2.83987995 45.50269221 -5 44 C-5.33 44.33 -5.66 44.66 -6 45 C-14.38167939 45.41221374 -14.38167939 45.41221374 -18 43 C-18 42.34 -18 41.68 -18 41 C-18.639375 40.896875 -19.27875 40.79375 -19.9375 40.6875 C-20.618125 40.460625 -21.29875 40.23375 -22 40 C-22.495 38.515 -22.495 38.515 -23 37 C-23.99 36.67 -24.98 36.34 -26 36 C-26 35.34 -26 34.68 -26 34 C-26.99 33.67 -27.98 33.34 -29 33 C-33 27.62857143 -33 27.62857143 -33 25 C-33.64453125 24.76539062 -34.2890625 24.53078125 -34.953125 24.2890625 C-37 23 -37 23 -37.609375 20.8359375 C-37.65578125 20.02382813 -37.7021875 19.21171875 -37.75 18.375 C-37.80671875 17.55773437 -37.8634375 16.74046875 -37.921875 15.8984375 C-37.94765625 15.27195312 -37.9734375 14.64546875 -38 14 C-35.375 14 -35.375 14 -32 15 C-30.27684771 16.95966338 -28.88585184 18.98283325 -27.4921875 21.1875 C-25.69788023 23.3669727 -24.70348143 23.46559088 -22 24 C-18.72239042 26.49098328 -16.28866345 28.56700483 -14 32 C-13.01 31.67 -12.02 31.34 -11 31 C-9.77030122 27.48809191 -9.77030122 27.48809191 -9 24 C-8.01 24 -7.02 24 -6 24 C-6 23.01 -6 22.02 -6 21 C-3.69 21.33 -1.38 21.66 1 22 C1.33 21.34 1.66 20.68 2 20 C3.32 20.99 4.64 21.98 6 23 C5.67558396 21.33157466 5.34060811 19.66519519 5 18 C4.87625 17.319375 4.7525 16.63875 4.625 15.9375 C3.85266313 13.5432557 2.58685337 11.93182149 1 10 C1.33 9.67 1.66 9.34 2 9 C1.484375 8.62875 0.96875 8.2575 0.4375 7.875 C-1 6 -1 6 -0.6875 2.8125 C-0.460625 1.884375 -0.23375 0.95625 0 0 Z M25 28 C26 30 26 30 26 30 Z M15 30 C15.66 31.32 16.32 32.64 17 34 C17 33.01 17 32.02 17 31 C16.34 30.67 15.68 30.34 15 30 Z M26 33 C26.0825 33.721875 26.165 34.44375 26.25 35.1875 C25.92407295 38.8541793 24.37466594 40.26553619 22 43 C21.67 43.99 21.34 44.98 21 46 C22.485 46.99 22.485 46.99 24 48 C24.268125 47.236875 24.53625 46.47375 24.8125 45.6875 C26 43 26 43 27.625 41.5 C29.24255706 40.01738838 29.24255706 40.01738838 29.375 37.4375 C29.25125 36.633125 29.1275 35.82875 29 35 C28.01 34.34 27.02 33.68 26 33 Z " fill="#140B07" transform="translate(44,0)"/>
<path d="M0 0 C2.58209395 1.31973691 4.19009055 2.57642194 6.3125 4.5 C9.13645532 7.02992093 10.97615826 8.02276035 14.8125 8.4375 C18.10160202 9.75314081 18.75375896 10.34938844 20.8125 13.4375 C21.8025 12.7775 22.7925 12.1175 23.8125 11.4375 C27 11.3125 27 11.3125 29.8125 11.4375 C30.1425 10.7775 30.4725 10.1175 30.8125 9.4375 C34.66033484 12.49827771 37.95982623 15.37792579 40.8125 19.4375 C40.8125 20.0975 40.8125 20.7575 40.8125 21.4375 C42.7925 21.4375 44.7725 21.4375 46.8125 21.4375 C46.8125 21.7675 46.8125 22.0975 46.8125 22.4375 C45.1625 22.4375 43.5125 22.4375 41.8125 22.4375 C41.503125 23.22125 41.19375 24.005 40.875 24.8125 C39.8125 27.4375 39.8125 27.4375 38.8125 29.4375 C39.575625 29.375625 40.33875 29.31375 41.125 29.25 C43.8125 29.4375 43.8125 29.4375 45.625 30.6875 C46.8125 32.4375 46.8125 32.4375 46.8125 36.4375 C47.8025 36.7675 48.7925 37.0975 49.8125 37.4375 C49.8125 38.0975 49.8125 38.7575 49.8125 39.4375 C50.8025 39.9325 50.8025 39.9325 51.8125 40.4375 C48.92015685 41.26388376 46.92507569 41.4375 43.8125 41.4375 C42.71441527 44.10427721 41.70811242 46.75718697 40.8125 49.5 C39.97473269 51.96094146 39.04151369 54.155046 37.8125 56.4375 C36.8225 56.1075 35.8325 55.7775 34.8125 55.4375 C34.956875 54.798125 35.10125 54.15875 35.25 53.5 C36.27354999 47.92733894 37.16717707 42.11233312 36.8125 36.4375 C36.4825 36.1075 36.1525 35.7775 35.8125 35.4375 C35.77169217 33.43791636 35.76995644 31.43704746 35.8125 29.4375 C34.1625 29.7675 32.5125 30.0975 30.8125 30.4375 C30.8125 29.7775 30.8125 29.1175 30.8125 28.4375 C29.4925 28.1075 28.1725 27.7775 26.8125 27.4375 C27.4725 27.1075 28.1325 26.7775 28.8125 26.4375 C24.41340031 23.96971237 20.78397025 23.08194985 15.8125 22.4375 C13.5 21.625 13.5 21.625 11.8125 20.4375 C11.55984375 19.83679688 11.3071875 19.23609375 11.046875 18.6171875 C9.36148422 15.64108606 7.17828181 14.30714244 4.375 12.375 C-2.29765528 7.74590093 -2.29765528 7.74590093 -4.1875 5.4375 C-4.375 2.75 -4.375 2.75 -4.1875 0.4375 C-2.1875 -0.5625 -2.1875 -0.5625 0 0 Z " fill="#0C0603" transform="translate(8.1875,33.5625)"/>
<path d="M0 0 C0.66 0.33 1.32 0.66 2 1 C2 1.66 2 2.32 2 3 C2.99 3.33 3.98 3.66 5 4 C4.87625 4.7425 4.7525 5.485 4.625 6.25 C4.74875 7.1575 4.8725 8.065 5 9 C5.928125 9.598125 6.85625 10.19625 7.8125 10.8125 C11.62665766 13.43005918 11.91405262 15.02434111 13.21484375 19.23828125 C13.91159511 21.30301573 13.91159511 21.30301573 16.625 22.3125 C17.40875 22.539375 18.1925 22.76625 19 23 C19.495 24.485 19.495 24.485 20 26 C19.01 26.495 19.01 26.495 18 27 C17.53476937 28.89533342 17.53476937 28.89533342 17.375 31.0625 C17.25125 32.361875 17.1275 33.66125 17 35 C15.515 35.495 15.515 35.495 14 36 C14 37.65 14 39.3 14 41 C13.34 39.68 12.68 38.36 12 37 C11.01 37 10.02 37 9 37 C9 38.32 9 39.64 9 41 C9.99 41 10.98 41 12 41 C12 41.99 12 42.98 12 44 C11.34 44 10.68 44 10 44 C10 43.34 10 42.68 10 42 C9.34 42 8.68 42 8 42 C7.67 40.68 7.34 39.36 7 38 C6.34 38 5.68 38 5 38 C5 37.34 5 36.68 5 36 C4.01 36.495 4.01 36.495 3 37 C3 37.66 3 38.32 3 39 C1.39796533 39.36368892 -0.20674203 39.71561952 -1.8125 40.0625 C-3.15248047 40.35833984 -3.15248047 40.35833984 -4.51953125 40.66015625 C-7 41 -7 41 -10 40 C-9.67 39.01 -9.34 38.02 -9 37 C-7.02 37 -5.04 37 -3 37 C-3.495 35.515 -3.495 35.515 -4 34 C-4.66 33.67 -5.32 33.34 -6 33 C-6.2475 32.195625 -6.495 31.39125 -6.75 30.5625 C-7.80955402 27.67628816 -7.80955402 27.67628816 -11.125 26.6875 C-12.548125 26.3471875 -12.548125 26.3471875 -14 26 C-12.125 21.25 -12.125 21.25 -11 19 C-8.77403998 18.15307099 -6.51636413 17.53153701 -4.2265625 16.87890625 C-1.76157631 15.90588539 -0.56110681 15.13782143 1 13 C1.39923762 10.8546771 1.39923762 10.8546771 1.25 8.5625 C1.23453125 7.80066406 1.2190625 7.03882813 1.203125 6.25390625 C1.00665883 4.07388739 0.59405998 2.10316396 0 0 Z " fill="#252017" transform="translate(61,37)"/>
<path d="M0 0 C0.763125 0.185625 1.52625 0.37125 2.3125 0.5625 C3.1478125 0.7790625 3.1478125 0.7790625 4 1 C3.7525 1.721875 3.505 2.44375 3.25 3.1875 C2.66877229 6.15794088 2.66877229 6.15794088 4.9375 8.5625 C5.9584375 9.7690625 5.9584375 9.7690625 7 11 C7 12.32 7 13.64 7 15 C7.61875 15.0825 8.2375 15.165 8.875 15.25 C11 16 11 16 12.3125 17.6875 C13.22979703 20.77295365 12.82216447 22.91688325 12 26 C9.29120665 27.35439668 6.99066732 27.06501451 4 27 C2.47551369 24.0173094 1.06059933 21.181798 0 18 C-0.33 18.99 -0.66 19.98 -1 21 C-1.33 20.01 -1.66 19.02 -2 18 C-2.66 18.66 -3.32 19.32 -4 20 C-4.33 18.02 -4.66 16.04 -5 14 C-5.66 14 -6.32 14 -7 14 C-7.33 12.35 -7.66 10.7 -8 9 C-8.66 9 -9.32 9 -10 9 C-9.745504 7.51793505 -9.47088238 6.03931385 -9.1875 4.5625 C-9.03667969 3.73878906 -8.88585937 2.91507812 -8.73046875 2.06640625 C-8.48941406 1.38449219 -8.24835938 0.70257813 -8 0 C-4.63997871 -1.1200071 -3.36541324 -0.8208325 0 0 Z M-6 10 C-5 13 -5 13 -5 13 Z " fill="#2E1A0E" transform="translate(97,91)"/>
<path d="M0 0 C1.65 0 3.3 0 5 0 C5 0.66 5 1.32 5 2 C6.32 2.66 7.64 3.32 9 4 C8.81695312 4.7115625 8.63390625 5.423125 8.4453125 6.15625 C7.96000681 9.2553951 8.24732671 11.4390179 8.875 14.5 C9.05804688 15.4178125 9.24109375 16.335625 9.4296875 17.28125 C9.80981989 19.09338799 10.22402654 20.89871113 10.671875 22.6953125 C11 25 11 25 9.375 27.375 C7 29 7 29 4.375 29 C2 28 2 28 0.6875 25.9375 C0.460625 25.298125 0.23375 24.65875 0 24 C-0.66 24 -1.32 24 -2 24 C-2.06058594 23.38511719 -2.12117188 22.77023438 -2.18359375 22.13671875 C-2.26738281 21.32847656 -2.35117188 20.52023438 -2.4375 19.6875 C-2.51871094 18.88699219 -2.59992188 18.08648437 -2.68359375 17.26171875 C-2.95265693 14.83912821 -2.95265693 14.83912821 -4 12 C-4.03954234 9.66700175 -4.04401732 7.33291811 -4 5 C-3.01 4.67 -2.02 4.34 -1 4 C-0.26676204 1.98491642 -0.26676204 1.98491642 0 0 Z " fill="#2C1A0F" transform="translate(67,97)"/>
<path d="M0 0 C2.58209395 1.31973691 4.19009055 2.57642194 6.3125 4.5 C9.13645532 7.02992093 10.97615826 8.02276035 14.8125 8.4375 C19.04408022 9.8921057 21.24581648 12.87266178 23.8125 16.4375 C23.8125 17.7575 23.8125 19.0775 23.8125 20.4375 C20.1825 20.7675 16.5525 21.0975 12.8125 21.4375 C12.4309375 20.69757812 12.049375 19.95765625 11.65625 19.1953125 C9.5488471 16.04313782 7.42949289 14.44914835 4.3125 12.3125 C-2.29519126 7.74750899 -2.29519126 7.74750899 -4.1875 5.4375 C-4.375 2.75 -4.375 2.75 -4.1875 0.4375 C-2.1875 -0.5625 -2.1875 -0.5625 0 0 Z " fill="#2E1A0F" transform="translate(8.1875,33.5625)"/>
<path d="M0 0 C0.99 0 1.98 0 3 0 C3 0.66 3 1.32 3 2 C3.66 2 4.32 2 5 2 C5.33 3.32 5.66 4.64 6 6 C5.01 6 4.02 6 3 6 C3.20625 6.721875 3.4125 7.44375 3.625 8.1875 C4.05952211 11.44641585 3.41680669 13.08304504 2 16 C2.99 15.34 3.98 14.68 5 14 C5.8638129 15.45264038 6.71580454 16.9123163 7.5625 18.375 C8.03816406 19.18710938 8.51382813 19.99921875 9.00390625 20.8359375 C9.33261719 21.55007812 9.66132812 22.26421875 10 23 C9.67 23.66 9.34 24.32 9 25 C7.35 25 5.7 25 4 25 C3.67 25.99 3.34 26.98 3 28 C2.01 27.67 1.02 27.34 0 27 C-0.309375 26.01 -0.61875 25.02 -0.9375 24 C-1.288125 23.01 -1.63875 22.02 -2 21 C-4.01784716 20.26735311 -4.01784716 20.26735311 -6 20 C-8.31207478 13.30715195 -7.78324764 9.4643171 -5 3 C-3.02 3 -1.04 3 1 3 C0.67 2.01 0.34 1.02 0 0 Z " fill="#140C08" transform="translate(63,73)"/>
<path d="M0 0 C4.40521974 2.96505175 7.98339209 5.5354203 11 10 C11 10.66 11 11.32 11 12 C12.98 12 14.96 12 17 12 C17 12.33 17 12.66 17 13 C15.35 13 13.7 13 12 13 C12 13.66 12 14.32 12 15 C8.00544473 14.38545304 5.25533664 12.29353263 2 10 C1.67 11.98 1.34 13.96 1 16 C-4.05531868 15.22225866 -9.01716284 14.14051606 -14 13 C-10.77208445 10.8480563 -9.71599191 10.79913557 -6 11 C-6.66 8.36 -7.32 5.72 -8 3 C-5.29120665 1.64560332 -2.99066732 1.93498549 0 2 C0 1.34 0 0.68 0 0 Z " fill="#170C07" transform="translate(38,43)"/>
<path d="M0 0 C0.66 0 1.32 0 2 0 C2.33 0.66 2.66 1.32 3 2 C5.34907875 2.68931344 5.34907875 2.68931344 8.0625 3.125 C8.98160156 3.29257813 9.90070313 3.46015625 10.84765625 3.6328125 C11.91306641 3.81457031 11.91306641 3.81457031 13 4 C13.33 4.99 13.66 5.98 14 7 C15.32467746 7.6837045 16.65863633 8.34964186 18 9 C18.99 10.485 18.99 10.485 20 12 C19.67 13.32 19.34 14.64 19 16 C14.38 16 9.76 16 5 16 C4.34 14.68 3.68 13.36 3 12 C2.34 11.34 1.68 10.68 1 10 C1 8.68 1 7.36 1 6 C0.01 6 -0.98 6 -2 6 C-1.125 1.125 -1.125 1.125 0 0 Z " fill="#2E1B10" transform="translate(104,72)"/>
<path d="M0 0 C2.74853046 4.12279569 3.681031 8.06661277 4 13 C3.35070934 16.17638595 2.32682555 19.04674313 1 22 C0.34 22 -0.32 22 -1 22 C-1 22.99 -1 23.98 -1 25 C-2.65 25 -4.3 25 -6 25 C-6.268125 24.195625 -6.53625 23.39125 -6.8125 22.5625 C-7.204375 21.716875 -7.59625 20.87125 -8 20 C-8.99 19.67 -9.98 19.34 -11 19 C-11.25 16.75 -11.25 16.75 -11 14 C-10.34 13.38125 -9.68 12.7625 -9 12.125 C-6.60304835 10.02914659 -6.60304835 10.02914659 -6.75 6.25 C-6.87375 4.64125 -6.87375 4.64125 -7 3 C-4 5 -4 5 -3.3125 7.625 C-3.209375 8.40875 -3.10625 9.1925 -3 10 C-2.01 10 -1.02 10 0 10 C-0.185625 8.72125 -0.37125 7.4425 -0.5625 6.125 C-1.125 2.25 -1.125 2.25 0 0 Z " fill="#130A06" transform="translate(79,30)"/>
<path d="M0 0 C2.875 0.25 2.875 0.25 6 1 C8.57532962 4.48017517 8.43587426 8.58135352 8.625 12.75 C8.66367188 13.44738281 8.70234375 14.14476562 8.7421875 14.86328125 C8.83598624 16.57510818 8.91906174 18.28751682 9 20 C8.01 20 7.02 20 6 20 C3.31780178 14.63560356 2.6847405 10.98993047 3 5 C2.01 4.67 1.02 4.34 0 4 C0 2.68 0 1.36 0 0 Z " fill="#3C2111" transform="translate(70,20)"/>
<path d="M0 0 C0 1.65 0 3.3 0 5 C-0.99 5.33 -1.98 5.66 -3 6 C-3 7.65 -3 9.3 -3 11 C-3.66 9.68 -4.32 8.36 -5 7 C-5.99 7 -6.98 7 -8 7 C-8 8.32 -8 9.64 -8 11 C-7.01 11 -6.02 11 -5 11 C-5 11.99 -5 12.98 -5 14 C-5.66 14 -6.32 14 -7 14 C-7 13.34 -7 12.68 -7 12 C-7.66 12 -8.32 12 -9 12 C-9.12375 11.360625 -9.2475 10.72125 -9.375 10.0625 C-9.58125 9.381875 -9.7875 8.70125 -10 8 C-10.66 7.67 -11.32 7.34 -12 7 C-11.01 7 -10.02 7 -9 7 C-9.83333333 4.83333333 -9.83333333 4.83333333 -12 4 C-5.27272727 -1.63636364 -5.27272727 -1.63636364 0 0 Z " fill="#412615" transform="translate(78,67)"/>
<path d="M0 0 C0.99 0 1.98 0 3 0 C3 0.66 3 1.32 3 2 C3.99 2.33 4.98 2.66 6 3 C5.9375 5.3125 5.9375 5.3125 5 8 C1.49851158 9.88042897 -1.0080306 11 -5 11 C-4.67 9.35 -4.34 7.7 -4 6 C-4.99 6 -5.98 6 -7 6 C-6.67 4.68 -6.34 3.36 -6 2 C-5.01 2 -4.02 2 -3 2 C-2.67 2.66 -2.34 3.32 -2 4 C-1.34 2.68 -0.68 1.36 0 0 Z " fill="#8B3C0F" transform="translate(46,27)"/>
<path d="M0 0 C5.42465753 0.48219178 5.42465753 0.48219178 7.875 2.6875 C9.28983481 5.59577155 9.21776233 7.80615246 9 11 C6.47356605 11.99252762 5.36712644 12.14685058 2.8125 11.125 C0.00946018 7.83867745 0.17615255 4.20123834 0 0 Z " fill="#3D2212" transform="translate(6,14)"/>
<path d="M0 0 C2.375 -0.125 2.375 -0.125 5 0 C7.49505962 2.49505962 7.35948376 3.67328888 7.625 7.125 C7.69976562 8.03507813 7.77453125 8.94515625 7.8515625 9.8828125 C7.90054688 10.58148438 7.94953125 11.28015625 8 12 C4.57459134 11.71454928 3.1915003 11.17638186 0.625 8.8125 C-1 6 -1 6 -0.75 2.6875 C-0.5025 1.800625 -0.255 0.91375 0 0 Z " fill="#43220F" transform="translate(44,0)"/>
<path d="M0 0 C0.99 0 1.98 0 3 0 C3 0.66 3 1.32 3 2 C3.66 2 4.32 2 5 2 C5.33 3.32 5.66 4.64 6 6 C5.01 6 4.02 6 3 6 C3.268125 6.721875 3.53625 7.44375 3.8125 8.1875 C4 11 4 11 1.5625 13.8125 C0.716875 14.534375 -0.12875 15.25625 -1 16 C-1.66 13.36 -2.32 10.72 -3 8 C-2.01 8 -1.02 8 0 8 C-0.185625 7.4225 -0.37125 6.845 -0.5625 6.25 C-1.04023546 3.79307475 -0.75729364 2.35602466 0 0 Z " fill="#060201" transform="translate(63,73)"/>
<path d="M0 0 C0.66 0.33 1.32 0.66 2 1 C1.01 4.63 0.02 8.26 -1 12 C-1.66 12 -2.32 12 -3 12 C-3 12.99 -3 13.98 -3 15 C-4.65 15 -6.3 15 -8 15 C-8.33 13.35 -8.66 11.7 -9 10 C-7.68 9.67 -6.36 9.34 -5 9 C-5.66 7.68 -6.32 6.36 -7 5 C-4.03 5.495 -4.03 5.495 -1 6 C-0.67 4.02 -0.34 2.04 0 0 Z " fill="#0F0805" transform="translate(81,40)"/>
<path d="M0 0 C2.36270192 3.54405288 2.71333497 5.77169086 3 10 C2.0625 13.4375 2.0625 13.4375 1 16 C-0.32 16 -1.64 16 -3 16 C-3 15.01 -3 14.02 -3 13 C-3.66 12.67 -4.32 12.34 -5 12 C-4.34 10.68 -3.68 9.36 -3 8 C-3 8.66 -3 9.32 -3 10 C-2.01 10 -1.02 10 0 10 C-0.185625 8.72125 -0.37125 7.4425 -0.5625 6.125 C-1.125 2.25 -1.125 2.25 0 0 Z " fill="#1A110C" transform="translate(79,30)"/>
<path d="M0 0 C1.7074998 1.28062485 3.37373596 2.61767557 5 4 C5 4.66 5 5.32 5 6 C3.39796533 6.36368892 1.79325797 6.71561952 0.1875 7.0625 C-0.70582031 7.25972656 -1.59914063 7.45695312 -2.51953125 7.66015625 C-5 8 -5 8 -8 7 C-7.67 6.01 -7.34 5.02 -7 4 C-5.02 4 -3.04 4 -1 4 C-0.67 2.68 -0.34 1.36 0 0 Z " fill="#271D14" transform="translate(59,70)"/>
<path d="M0 0 C3.21147569 4.01434462 5.70304228 8.40608456 8 13 C7.01 13 6.02 13 5 13 C4.54625 12.195625 4.0925 11.39125 3.625 10.5625 C2.23347815 7.75117093 2.23347815 7.75117093 -0.6875 7.1875 C-1.8321875 7.0946875 -1.8321875 7.0946875 -3 7 C-1.125 2.25 -1.125 2.25 0 0 Z " fill="#423527" transform="translate(50,56)"/>
<path d="M0 0 C0.66 0 1.32 0 2 0 C2 0.66 2 1.32 2 2 C3.32 1.67 4.64 1.34 6 1 C5.67 2.65 5.34 4.3 5 6 C3.02 6.66 1.04 7.32 -1 8 C-1.625 5.125 -1.625 5.125 -2 2 C-1.34 1.34 -0.68 0.68 0 0 Z " fill="#393024" transform="translate(63,55)"/>
<path d="M0 0 C1.65 0 3.3 0 5 0 C5.33 1.65 5.66 3.3 6 5 C3.625 5.625 3.625 5.625 1 6 C0.34 5.34 -0.32 4.68 -1 4 C-0.625 1.875 -0.625 1.875 0 0 Z " fill="#D65C15" transform="translate(48,46)"/>
<path d="M0 0 C2.875 0.25 2.875 0.25 6 1 C8.24329772 3.85510619 8.19667385 6.45987077 8 10 C7.67 9.01 7.34 8.02 7 7 C6.34 7 5.68 7 5 7 C4.67 6.01 4.34 5.02 4 4 C2.68 4 1.36 4 0 4 C0 2.68 0 1.36 0 0 Z " fill="#5F2B0D" transform="translate(70,20)"/>
<path d="M0 0 C2.4375 0.8125 2.4375 0.8125 5 2 C5.33 2.99 5.66 3.98 6 5 C5.01 5.495 5.01 5.495 4 6 C3.01 7.485 3.01 7.485 2 9 C0.4375 6.1875 0.4375 6.1875 -1 3 C-0.67 2.01 -0.34 1.02 0 0 Z " fill="#36271B" transform="translate(75,58)"/>
<path d="M0 0 C-0.33 1.32 -0.66 2.64 -1 4 C-1.99 4 -2.98 4 -4 4 C-4 3.34 -4 2.68 -4 2 C-4.94875 2.515625 -5.8975 3.03125 -6.875 3.5625 C-7.90625 4.036875 -8.9375 4.51125 -10 5 C-10.66 4.67 -11.32 4.34 -12 4 C-5.27272727 -1.63636364 -5.27272727 -1.63636364 0 0 Z " fill="#5A4832" transform="translate(78,67)"/>
<path d="M0 0 C1.98 0 3.96 0 6 0 C6 0.66 6 1.32 6 2 C7.29233607 3.37310707 8.62437146 4.71034824 10 6 C9.01 6.33 8.02 6.66 7 7 C6.67 6.01 6.34 5.02 6 4 C4.66923011 3.65657551 3.33568021 3.32380126 2 3 C1.34 2.01 0.68 1.02 0 0 Z " fill="#100906" transform="translate(100,68)"/>
<path d="M0 0 C4.75 0.75 4.75 0.75 7 3 C7.56520003 5.65537372 7.73788198 8.29144713 8 11 C5.25498003 7.38813161 2.62987986 3.69604737 0 0 Z " fill="#362B1F" transform="translate(66,48)"/>
<path d="M0 0 C0 0.99 0 1.98 0 3 C-2.31 3 -4.62 3 -7 3 C-7.33 2.01 -7.66 1.02 -8 0 C-5.13822943 -1.43088528 -3.06624227 -0.59991697 0 0 Z " fill="#BE5A21" transform="translate(50,40)"/>
<path d="M0 0 C0.99 0.33 1.98 0.66 3 1 C3 2.65 3 4.3 3 6 C1.35 6 -0.3 6 -2 6 C-1.125 1.125 -1.125 1.125 0 0 Z " fill="#CF5A17" transform="translate(57,41)"/>
<path d="M0 0 C0 1.65 0 3.3 0 5 C-1.98 5.99 -1.98 5.99 -4 7 C-4.6875 5.1875 -4.6875 5.1875 -5 3 C-3.38441968 0.84589291 -2.74502455 0 0 0 Z " fill="#D35A14" transform="translate(56,34)"/>
<path d="M0 0 C0 1.65 0 3.3 0 5 C-2.35171131 4.40138258 -4.6859378 3.73075648 -7 3 C-7.33 2.34 -7.66 1.68 -8 1 C-5.10765685 0.17361624 -3.11257569 0 0 0 Z " fill="#0A0503" transform="translate(82,56)"/>
<path d="M0 0 C1.32 0.33 2.64 0.66 4 1 C3.75 3.375 3.75 3.375 3 6 C0.9375 7.3125 0.9375 7.3125 -1 8 C-1.33 7.01 -1.66 6.02 -2 5 C-0.68 4.67 0.64 4.34 2 4 C1.34 2.68 0.68 1.36 0 0 Z " fill="#050200" transform="translate(74,45)"/>
<path d="M0 0 C0.99 0.495 0.99 0.495 2 1 C2 1.66 2 2.32 2 3 C2.99 3.33 3.98 3.66 5 4 C4.625 6.4375 4.625 6.4375 4 9 C3.01 9.495 3.01 9.495 2 10 C1.34 6.7 0.68 3.4 0 0 Z " fill="#48230C" transform="translate(61,37)"/>
<path d="M0 0 C1.65 0 3.3 0 5 0 C4.67 1.32 4.34 2.64 4 4 C3.01 4 2.02 4 1 4 C0.67 2.68 0.34 1.36 0 0 Z " fill="#843E16" transform="translate(67,97)"/>
<path d="M0 0 C0.33 1.65 0.66 3.3 1 5 C0.01 5 -0.98 5 -2 5 C-2 4.34 -2 3.68 -2 3 C-3.32 2.67 -4.64 2.34 -6 2 C-2.25 0 -2.25 0 0 0 Z " fill="#0F0805" transform="translate(41,59)"/>
<path d="M0 0 C0.99 0.33 1.98 0.66 3 1 C3.6875 3.0625 3.6875 3.0625 4 5 C2.68 4.67 1.36 4.34 0 4 C0 2.68 0 1.36 0 0 Z " fill="#D6560D" transform="translate(111,78)"/>
<path d="M0 0 C1.32 0 2.64 0 4 0 C4.33 0.99 4.66 1.98 5 3 C2 4 2 4 -1 3 C-0.67 2.01 -0.34 1.02 0 0 Z " fill="#9F4A19" transform="translate(52,74)"/>
</svg>
